# xmcd CD database file
#
# Track frame offsets:
#	150
#	11870
#	24712
#	46467
#	64234
#	76237
#	86444
#	105033
#	118172
#	134586
#
# Disc length: 1959 seconds
#
# Revision: 1
# Processed by: cddbd v1.4PL0 Copyright (c) Steve Scherf et al.
# Submitted via: CDex 1.40Beta8
#
DISCID=7e07a50a
DTITLE=The Nationals - Double Slide
DYEAR=1900
DGENRE=Blues
TTITLE0=Lay It On
TTITLE1=I Had A Dream
TTITLE2=Only The Lonely Knows
TTITLE3=Not An Ordinary Man
TTITLE4=Don't Know What You Got
TTITLE5=Better Get Ready
TTITLE6=Pound 'O Pain
TTITLE7=Nowhere Left To Ride
TTITLE8=Listen Up
TTITLE9=Kensington Kat
EXTD=ID3G: 0
EXTT0=
EXTT1=
EXTT2=
EXTT3=
EXTT4=
EXTT5=
EXTT6=
EXTT7=
EXTT8=
EXTT9=
PLAYORDER=
